<?xml version="1.0" standalone="no"?>
<!DOCTYPE svg PUBLIC "-//W3C//DTD SVG 20010904//EN"
 "http://www.w3.org/TR/2001/REC-SVG-20010904/DTD/svg10.dtd">
<svg version="1.0" xmlns="http://www.w3.org/2000/svg"
 width="300.000000pt" height="333.000000pt" viewBox="0 0 300.000000 333.000000"
 preserveAspectRatio="xMidYMid meet">
<metadata>
Created by potrace 1.10, written by Peter Selinger 2001-2011
</metadata>
<g transform="translate(0.000000,333.000000) scale(0.100000,-0.100000)"
fill="#000000" stroke="none">
<path d="M1170 2805 c-8 -2 -49 -9 -90 -15 -94 -15 -149 -41 -217 -104 -82
-74 -88 -90 -86 -231 1 -97 7 -138 28 -210 17 -59 29 -134 36 -220 5 -71 13
-152 18 -180 10 -57 8 -63 -14 -45 -12 10 -15 10 -15 -5 0 -9 8 -19 19 -22 12
-3 29 -29 46 -69 32 -76 111 -178 165 -215 47 -32 121 -43 187 -29 65 15 235
128 270 181 14 22 38 87 53 146 15 58 34 109 41 114 10 6 11 9 2 9 -16 0 -18
116 -4 153 21 54 91 98 77 49 -3 -10 -1 -35 4 -57 l8 -40 1 35 c2 33 3 33 12
11 15 -38 0 -119 -30 -154 -26 -32 -26 -32 -2 -16 33 21 61 76 61 120 0 39
-23 103 -40 114 -16 10 -12 31 20 99 25 53 29 71 24 106 -8 49 -79 160 -106
168 -16 4 -18 10 -12 36 23 101 -17 193 -101 231 -66 30 -282 54 -355 40z
m168 -48 c9 -7 16 -5 26 8 11 15 16 16 37 4 13 -7 32 -12 41 -10 30 4 108 -48
108 -72 0 -16 3 -18 9 -8 12 19 20 2 26 -56 2 -26 7 -61 11 -78 4 -24 3 -27
-6 -15 -9 12 -10 7 -4 -20 3 -19 10 -37 15 -38 5 -2 16 -10 23 -18 8 -8 18
-14 23 -14 18 0 46 -64 52 -121 7 -54 0 -78 -12 -46 -3 6 -6 -2 -6 -19 -1 -17
-8 -37 -17 -45 -9 -7 -14 -22 -11 -35 3 -16 -2 -24 -15 -27 -14 -4 -22 4 -34
31 -9 21 -17 45 -19 55 -8 39 -17 57 -27 57 -5 0 -7 -8 -4 -17 4 -9 1 -20 -5
-24 -8 -5 -4 -22 14 -60 22 -48 25 -64 22 -154 -2 -55 -10 -127 -19 -160 -9
-32 -16 -65 -16 -73 0 -28 -65 -162 -77 -158 -6 3 -14 -6 -17 -19 -5 -21 -53
-57 -71 -55 -3 1 -21 -12 -40 -29 -28 -24 -75 -43 -117 -46 -3 0 -10 -3 -14
-7 -12 -13 -34 13 -34 39 0 16 -5 23 -12 20 -14 -5 -14 -10 -2 -41 6 -17 4
-18 -17 -12 -13 4 -33 8 -44 10 -30 4 -58 22 -75 47 -8 12 -25 31 -38 43 -47
45 -101 175 -122 291 -17 96 -19 128 -11 255 5 80 7 159 4 177 -8 48 15 89 59
107 21 8 38 20 38 26 0 7 -7 10 -16 6 -9 -3 -20 -6 -25 -6 -13 0 -69 -55 -69
-68 0 -6 -7 -9 -15 -6 -8 4 -15 15 -15 26 0 11 -5 28 -10 38 -15 28 -1 100 19
100 14 1 14 2 -2 14 -12 9 -14 16 -7 21 5 3 8 11 5 16 -4 5 0 9 8 9 8 0 20 14
27 30 7 17 18 30 26 30 7 0 19 8 26 18 26 36 77 62 128 67 29 2 58 9 66 15 9
8 18 8 33 1 26 -14 34 -14 24 2 -4 6 6 4 21 -7 27 -17 29 -17 22 -1 -5 15 -2
17 24 13 16 -3 30 -1 30 3 0 11 61 -1 78 -14z"/>
<path d="M1220 2534 c0 -15 32 -35 53 -33 12 1 33 -3 47 -8 34 -14 39 -6 9 15
-13 9 -24 15 -24 13 0 -3 -10 1 -22 8 -18 9 -23 9 -23 -1 0 -8 -3 -9 -8 -3 -8
11 -32 18 -32 9z"/>
<path d="M985 2494 c-22 -19 -26 -27 -17 -36 8 -8 12 -8 12 -1 0 6 17 14 37
18 21 4 41 12 45 18 6 9 12 9 27 0 11 -7 23 -9 26 -4 5 9 -32 21 -81 26 -12 2
-34 -8 -49 -21z"/>
<path d="M1160 2510 c12 -8 10 -10 -8 -10 -13 0 -20 -4 -17 -10 3 -5 17 -10
30 -10 13 0 27 5 30 10 3 6 1 10 -5 10 -6 0 -8 5 -5 10 3 6 -4 10 -17 10 -18
0 -20 -2 -8 -10z"/>
<path d="M912 2154 c-12 -8 -22 -23 -22 -32 0 -12 3 -13 8 -5 10 16 106 2 154
-23 30 -15 32 -16 19 -1 -12 15 -10 17 15 17 27 0 27 1 9 14 -11 7 -42 16 -70
20 -27 3 -54 11 -59 16 -14 14 -28 12 -54 -6z"/>
<path d="M1405 2151 c-6 -6 -37 -11 -69 -13 -36 -2 -61 -8 -64 -15 -2 -8 5
-13 17 -13 35 0 33 -19 -4 -34 -19 -8 -35 -22 -35 -30 0 -23 18 -20 25 4 9 28
28 25 21 -2 -3 -13 1 -8 9 10 18 39 28 40 43 7 13 -29 46 -33 61 -7 9 16 10
16 16 0 9 -22 42 -24 42 -3 0 15 -53 35 -94 35 -13 0 -23 5 -23 10 0 10 50 14
118 10 37 -2 43 16 10 29 -50 18 -64 21 -73 12z"/>
<path d="M941 2087 c-14 -6 -26 -18 -29 -24 -5 -18 27 -16 34 2 4 8 12 15 19
15 7 0 15 -7 19 -15 7 -20 42 -19 50 2 12 31 -46 44 -93 20z"/>
<path d="M1074 2063 c-17 -17 -17 -18 0 -21 27 -6 46 6 40 23 -8 20 -19 19
-40 -2z"/>
<path d="M1276 1833 c-8 -8 -13 -9 -41 -12 -8 0 -15 -7 -15 -14 0 -8 -11 -19
-25 -25 -21 -10 -29 -8 -57 18 -18 17 -36 30 -40 30 -12 0 -10 -14 4 -28 8 -8
8 -15 -3 -28 -13 -16 -12 -17 14 -10 16 4 27 2 27 -4 0 -6 21 -9 50 -8 46 2
49 4 44 25 -5 18 -2 23 14 23 11 0 25 7 32 15 13 16 9 31 -4 18z"/>
<path d="M1013 1758 c-14 -7 -23 -20 -23 -34 0 -32 17 -39 24 -10 4 15 15 26
28 28 27 4 37 28 11 27 -10 0 -28 -5 -40 -11z"/>
<path d="M1284 1738 c-4 -7 -3 -8 4 -4 18 11 52 -17 52 -42 0 -15 5 -22 13
-20 17 6 21 46 7 64 -15 17 -66 19 -76 2z"/>
<path d="M1034 1702 c3 -4 56 -9 118 -11 62 -1 120 -3 128 -4 8 -1 17 3 20 8
3 6 -45 11 -133 13 -76 1 -136 -1 -133 -6z"/>
<path d="M1225 1650 c-3 -5 -29 -10 -56 -10 -61 0 -63 -20 -4 -32 35 -8 75 6
60 20 -3 3 5 12 17 19 18 9 19 12 6 13 -9 0 -20 -4 -23 -10z"/>
<path d="M1707 1858 c-31 -45 -32 -49 -1 -38 13 5 24 21 28 41 3 18 5 33 4 34
-2 2 -16 -15 -31 -37z"/>
<path d="M1645 1782 c-40 -8 -33 -17 11 -15 25 0 48 3 50 6 7 7 -38 13 -61 9z"/>
<path d="M1525 1593 c-10 -40 -322 -342 -353 -343 -47 0 -152 124 -152 180 0
11 -4 20 -10 20 -5 0 -10 -25 -10 -55 l0 -55 -47 -21 c-61 -28 -66 -30 -160
-80 -43 -24 -98 -53 -123 -66 -51 -27 -83 -46 -90 -53 -3 -3 -14 -10 -24 -16
-11 -5 -28 -26 -38 -45 -21 -38 -21 -75 2 -326 11 -125 10 -138 -10 -225 -12
-51 -25 -135 -30 -188 -4 -52 -17 -121 -28 -152 -11 -31 -23 -81 -27 -112 -6
-48 -5 -56 9 -56 9 0 16 3 17 8 4 53 11 90 29 143 11 35 25 104 30 154 6 50
17 119 26 155 22 93 28 188 12 207 -14 17 -12 156 2 161 4 1 1 31 -6 65 -19
88 -17 119 9 157 23 34 131 100 297 182 47 23 93 48 103 56 15 14 17 13 17 -5
0 -38 -21 -239 -30 -288 -5 -27 -14 -122 -20 -210 -20 -308 -49 -674 -55 -693
-4 -10 -9 -10 -24 0 -16 10 -26 8 -56 -8 -41 -22 -79 -54 -72 -61 3 -2 30 7
61 21 66 30 70 31 86 10 8 -8 23 -20 34 -26 12 -6 18 -7 14 -3 -4 5 -3 14 4
22 8 10 8 12 -3 8 -10 -4 -15 6 -17 36 -2 31 2 45 18 59 11 9 20 21 20 25 0 5
-9 0 -20 -10 l-21 -19 7 70 c3 38 12 110 18 159 6 50 12 107 11 127 0 21 2 38
5 38 3 0 6 73 7 163 1 94 11 231 23 327 12 91 24 195 27 232 7 88 22 94 87 33
l49 -45 -43 -46 c-42 -46 -83 -123 -95 -179 l-6 -30 25 30 c14 17 26 33 26 37
0 4 9 10 20 13 11 3 20 13 20 22 0 10 6 14 19 10 13 -3 27 3 38 16 11 14 12
18 3 11 -8 -6 -25 -11 -37 -12 -19 -1 -23 5 -23 28 0 23 7 30 40 44 22 9 59
16 83 16 37 1 40 2 25 14 -22 17 -23 26 -2 26 10 0 46 29 82 65 35 36 69 65
75 65 6 0 8 3 4 6 -3 3 11 20 31 37 20 18 45 42 55 55 10 12 23 19 29 16 6 -4
8 -3 5 3 -4 6 4 20 17 32 30 29 81 26 81 -4 1 -11 6 -19 12 -18 6 1 35 -22 64
-52 30 -30 59 -55 66 -55 6 0 15 -9 18 -21 4 -11 13 -18 20 -15 7 2 16 2 19
-2 4 -3 13 -7 22 -8 8 -1 52 -20 97 -42 111 -54 175 -82 187 -82 6 0 30 -10
53 -21 23 -12 44 -22 47 -22 9 1 33 -9 87 -32 32 -14 54 -31 58 -45 4 -12 9
-19 13 -16 22 23 85 -186 71 -237 -7 -27 1 -67 22 -112 11 -24 20 -180 23
-400 1 -88 6 -184 10 -212 5 -37 4 -53 -3 -53 -12 0 -15 -38 -5 -64 3 -9 13
-16 21 -16 12 0 13 41 9 288 -6 360 -10 436 -29 492 -8 25 -15 65 -16 90 -7
189 -61 280 -202 333 -194 75 -188 73 -450 194 -50 24 -81 48 -125 97 -46 52
-65 66 -87 66 -23 0 -31 6 -40 30 -14 37 -23 38 -32 3z"/>
<path d="M1240 1204 c0 -5 9 -20 20 -32 27 -29 26 -34 -19 -68 -22 -16 -37
-32 -34 -36 2 -5 0 -8 -6 -8 -6 0 -8 -6 -5 -14 3 -8 -3 -16 -14 -18 -29 -8
-72 2 -72 17 0 8 8 11 19 8 16 -4 19 -1 14 16 -4 16 -1 21 15 21 12 0 24 5 28
12 4 7 3 8 -4 4 -7 -4 -12 -2 -12 4 0 6 -10 4 -25 -6 -14 -9 -23 -20 -20 -24
3 -4 -5 -10 -16 -13 -17 -5 -19 -9 -9 -26 6 -12 20 -21 30 -21 14 0 20 -7 21
-25 1 -14 3 -29 4 -35 1 -5 3 -20 4 -31 1 -18 3 -19 16 -9 13 11 14 10 9 -4
-3 -9 -11 -16 -16 -16 -6 0 -8 -9 -5 -20 3 -10 -1 -24 -8 -30 -8 -6 -16 -30
-20 -53 -4 -23 -15 -57 -26 -75 -22 -39 -25 -66 -4 -38 14 19 15 18 24 -5 7
-16 10 -19 10 -7 1 9 -3 20 -9 23 -5 3 -10 11 -10 17 0 6 6 6 15 -2 13 -11 14
-10 9 5 -5 13 -3 16 12 13 11 -2 18 -11 18 -21 -1 -9 4 -17 12 -17 8 0 14 7
14 16 0 10 6 14 15 10 12 -4 13 -2 3 14 -9 14 -15 16 -26 8 -10 -9 -18 -6 -34
9 -26 26 -17 75 18 98 19 12 22 20 15 33 -5 9 -6 23 -1 32 4 8 11 35 15 60 4
25 18 58 31 73 13 16 24 32 24 37 0 4 13 13 28 19 34 14 78 -1 88 -31 5 -17
24 -16 24 1 0 5 -25 27 -55 50 -30 23 -66 53 -80 68 -14 15 -25 23 -25 17z"/>
<path d="M1696 1167 c-22 -7 -41 -17 -43 -23 -2 -7 16 -5 47 6 82 28 78 42 -4
17z"/>
<path d="M1684 987 c-41 -61 -90 -142 -106 -172 -43 -83 -137 -251 -188 -335
-31 -52 -78 -133 -104 -180 -26 -47 -72 -125 -103 -173 -30 -48 -53 -90 -51
-92 5 -5 145 201 168 247 7 16 17 28 22 28 5 0 7 4 3 9 -3 5 1 16 10 24 8 8
25 40 39 70 13 30 28 57 34 61 6 3 36 57 67 119 68 132 88 169 170 302 80 130
77 125 68 125 -4 0 -18 -15 -29 -33z"/>
<path d="M1046 974 c-3 -8 -3 -33 0 -54 6 -36 8 -38 30 -28 22 10 29 31 24 67
-1 8 4 18 12 23 10 8 10 9 -2 5 -9 -2 -16 -18 -18 -38 -4 -36 -22 -66 -22 -36
0 9 -4 17 -10 17 -5 0 -7 13 -3 30 6 32 -1 41 -11 14z"/>
<path d="M1078 840 c3 -18 -4 -46 -17 -71 -17 -32 -19 -44 -10 -53 8 -7 10 -7
6 0 -3 6 5 22 18 36 13 14 21 28 18 31 -3 3 -1 20 5 36 9 26 8 32 -7 40 -15 9
-17 6 -13 -19z"/>
<path d="M1219 830 c-3 -14 -2 -38 2 -55 4 -16 8 -25 9 -20 6 31 6 43 0 70 -6
29 -6 29 -11 5z"/>
<path d="M1015 657 c-16 -6 -31 -11 -32 -12 -1 0 -4 -14 -8 -30 l-6 -30 16 27
c9 16 21 25 29 22 8 -3 19 3 26 15 6 12 9 21 8 20 -2 -1 -16 -6 -33 -12z"/>
<path d="M1065 652 c-15 -10 -35 -59 -35 -85 0 -20 -4 -23 -36 -19 -26 3 -35
1 -30 -7 4 -6 16 -11 28 -11 15 0 18 -4 14 -17 -4 -10 -4 -14 0 -11 12 12 44
-12 44 -32 0 -21 -22 -18 -52 7 -22 20 -38 8 -37 -25 1 -25 2 -25 7 -5 l7 22
43 -19 c38 -17 42 -22 42 -55 0 -19 2 -35 4 -35 2 0 13 -3 23 -7 17 -6 17 -5
2 13 -9 10 -16 26 -17 34 0 8 -2 26 -5 40 -12 60 -20 80 -28 74 -12 -7 -11 -1
7 62 8 30 19 54 23 54 4 0 8 7 8 15 0 8 -1 15 -1 15 -1 0 -6 -4 -11 -8z"/>
<path d="M1223 653 c6 -10 -19 -34 -27 -26 -3 4 -6 -1 -6 -10 0 -9 -7 -17 -15
-17 -8 0 -15 5 -15 10 0 6 -5 10 -10 10 -7 0 -7 -6 -1 -18 7 -14 5 -23 -10
-35 -10 -9 -19 -25 -18 -34 0 -14 2 -15 6 -3 9 24 76 80 93 77 10 -1 16 8 18
26 2 15 -2 27 -8 27 -6 0 -9 -3 -7 -7z"/>
<path d="M1189 482 c-15 -48 -32 -86 -38 -84 -10 2 -17 -36 -12 -62 1 -5 0
-15 -3 -23 -5 -11 -13 -10 -45 6 -33 17 -40 18 -45 6 -4 -11 2 -15 20 -15 14
0 34 -5 44 -10 18 -10 18 -12 -5 -80 -42 -125 -66 -215 -51 -199 11 12 89 237
91 264 1 6 4 17 7 25 3 8 12 36 19 62 7 26 17 44 21 42 5 -3 8 -2 6 3 -1 4 6
33 15 65 18 61 21 88 10 88 -5 0 -20 -39 -34 -88z"/>
<path d="M1979 533 c-5 -104 -3 -367 3 -376 4 -7 8 81 8 196 0 114 -2 207 -5
207 -3 0 -6 -12 -6 -27z"/>
<path d="M1155 536 c-16 -17 -17 -53 -3 -62 7 -4 10 -4 6 1 -4 4 -1 20 7 36
15 28 8 46 -10 25z"/>
<path d="M1081 511 c-8 -5 -10 -14 -6 -22 5 -7 12 -26 16 -43 6 -27 7 -23 8
22 1 28 0 52 -1 52 -2 0 -9 -4 -17 -9z"/>
<path d="M621 430 c-1 -55 25 -267 39 -322 6 -22 9 -43 6 -46 -3 -3 -1 -11 5
-18 6 -8 9 -21 5 -29 -3 -9 0 -15 9 -15 18 0 19 -8 -4 92 -11 46 -25 128 -31
183 -6 55 -15 123 -19 150 l-9 50 -1 -45z"/>
<path d="M978 402 c-14 -24 -15 -31 -2 -62 8 -19 20 -38 27 -42 9 -6 9 -10 -2
-17 -11 -7 -9 -10 7 -15 34 -11 40 -70 16 -154 -4 -14 -2 -22 5 -22 7 0 9 5 6
10 -4 6 -1 18 6 26 7 9 12 40 11 72 0 34 4 60 11 64 8 5 4 8 -9 8 -19 0 -38
21 -31 35 1 2 -6 10 -15 17 -30 24 -24 92 10 101 14 4 13 5 -3 6 -13 1 -27
-10 -37 -27z"/>
<path d="M941 253 c-11 -12 -10 -16 3 -26 25 -18 31 -78 12 -115 -9 -18 -14
-32 -11 -32 10 0 34 27 29 32 -2 3 0 16 5 29 l10 24 1 -25 c1 -23 2 -23 15 9
17 38 19 53 5 31 -17 -25 -42 17 -36 60 4 24 3 29 -3 15 -7 -17 -9 -17 -12 -3
-4 14 -6 14 -18 1z"/>
<path d="M992 50 c-16 -26 -16 -27 8 -33 17 -4 20 0 20 24 0 34 -10 37 -28 9z"/>
</g>
</svg>
